<?xml version="1.0" encoding="utf-8"?>
<!-- Generator: Adobe Illustrator 24.3.0, SVG Export Plug-In . SVG Version: 6.00 Build 0)  -->
<svg version="1.1" id="MAIN_GRAPHICS" xmlns="http://www.w3.org/2000/svg" xmlns:xlink="http://www.w3.org/1999/xlink" x="0px"
	 y="0px" width="820px" height="535.63px" viewBox="0 0 820 535.63" style="enable-background:new 0 0 820 535.63;"
	 xml:space="preserve">
<style type="text/css">
	.st0{fill:#333333;}
	.st1{fill:#FFFFFF;}
	.st2{fill:url(#SVGID_1_);}
	.st3{fill:url(#SVGID_2_);}
	.st4{fill:url(#SVGID_3_);}
	.st5{fill:url(#SVGID_4_);}
	.st6{fill:url(#SVGID_5_);}
	.st7{fill:url(#SVGID_6_);}
	.st8{fill:#1CD0BB;}
</style>
<circle class="st0" cx="412.029" cy="265.812" r="100.277"/>
<circle class="st1" cx="538.962" cy="191.196" r="61.998"/>
<circle class="st1" cx="410.538" cy="117.02" r="61.998"/>
<circle class="st1" cx="410.538" cy="415.938" r="61.998"/>
<circle class="st1" cx="538.962" cy="340.655" r="61.998"/>
<circle class="st1" cx="284.328" cy="191.196" r="61.998"/>
<circle class="st1" cx="284.328" cy="340.655" r="61.998"/>
<linearGradient id="SVGID_1_" gradientUnits="userSpaceOnUse" x1="225.2561" y1="225.1178" x2="344.1443" y2="156.4776">
	<stop  offset="0" style="stop-color:#00B4E5"/>
	<stop  offset="1" style="stop-color:#1CD0BB"/>
</linearGradient>
<path class="st2" d="M284.7,259.451c-37.856,0-68.653-30.797-68.653-68.653s30.797-68.654,68.653-68.654
	s68.654,30.798,68.654,68.654S322.556,259.451,284.7,259.451z M284.7,133.241c-31.737,0-57.556,25.82-57.556,57.556
	s25.819,57.556,57.556,57.556s57.556-25.819,57.556-57.556S316.437,133.241,284.7,133.241z"/>
<g>
	<g>
		<path class="st1" d="M387.879,236.509h4.849c3.907,0,6.607,2.682,6.607,6.181v0.036c0,3.499-2.7,6.216-6.607,6.216h-4.849V236.509
			z M390.614,238.978v7.495h2.114c2.238,0,3.748-1.51,3.748-3.712v-0.035c0-2.203-1.51-3.748-3.748-3.748H390.614z"/>
		<path class="st1" d="M406.239,236.42h2.522l5.328,12.521h-2.859l-1.137-2.789h-5.257l-1.137,2.789h-2.789L406.239,236.42z
			 M409.117,243.738l-1.652-4.032l-1.651,4.032H409.117z"/>
		<path class="st1" d="M418.401,239.031h-3.783v-2.522h10.302v2.522h-3.783v9.911h-2.735V239.031z"/>
		<path class="st1" d="M430.778,236.42h2.521l5.329,12.521h-2.86l-1.137-2.789h-5.257l-1.137,2.789h-2.789L430.778,236.42z
			 M433.655,243.738l-1.651-4.032l-1.652,4.032H433.655z"/>
		<path class="st1" d="M367.237,257.816h5.08c2.966,0,4.76,1.758,4.76,4.298v0.036c0,2.877-2.238,4.369-5.026,4.369h-2.078v3.73
			h-2.735V257.816z M372.14,264.086c1.368,0,2.167-0.817,2.167-1.883v-0.036c0-1.225-0.853-1.882-2.22-1.882h-2.114v3.801H372.14z"
			/>
		<path class="st1" d="M380.199,257.816h5.684c1.581,0,2.807,0.444,3.624,1.261c0.693,0.693,1.066,1.669,1.066,2.842v0.036
			c0,2.007-1.083,3.268-2.665,3.854l3.037,4.44h-3.197l-2.664-3.979h-2.149v3.979h-2.735V257.816z M385.706,263.855
			c1.332,0,2.096-0.71,2.096-1.758v-0.036c0-1.172-0.817-1.776-2.149-1.776h-2.718v3.57H385.706z"/>
		<path class="st1" d="M393.587,264.068v-0.036c0-3.535,2.789-6.43,6.625-6.43s6.589,2.859,6.589,6.394v0.036
			c0,3.534-2.789,6.429-6.625,6.429S393.587,267.603,393.587,264.068z M403.941,264.068v-0.036c0-2.131-1.562-3.908-3.765-3.908
			s-3.73,1.741-3.73,3.872v0.036c0,2.131,1.563,3.907,3.766,3.907C402.414,267.94,403.941,266.199,403.941,264.068z"/>
		<path class="st1" d="M409.78,264.068v-0.036c0-3.535,2.664-6.43,6.482-6.43c2.345,0,3.748,0.782,4.902,1.918l-1.74,2.007
			c-0.959-0.87-1.937-1.403-3.18-1.403c-2.096,0-3.605,1.741-3.605,3.872v0.036c0,2.131,1.475,3.907,3.605,3.907
			c1.421,0,2.291-0.568,3.269-1.457l1.74,1.759c-1.278,1.367-2.699,2.22-5.098,2.22C412.498,270.462,409.78,267.638,409.78,264.068z
			"/>
		<path class="st1" d="M424.535,257.816h9.378v2.433h-6.661v2.522h5.861v2.434h-5.861v2.611h6.75v2.433h-9.467V257.816z"/>
		<path class="st1" d="M436.681,268.438l1.616-1.936c1.119,0.923,2.291,1.51,3.712,1.51c1.119,0,1.794-0.444,1.794-1.172v-0.036
			c0-0.692-0.427-1.048-2.504-1.581c-2.505-0.64-4.121-1.332-4.121-3.801v-0.036c0-2.256,1.812-3.748,4.352-3.748
			c1.812,0,3.356,0.568,4.618,1.581l-1.421,2.061c-1.102-0.764-2.185-1.226-3.232-1.226c-1.049,0-1.599,0.479-1.599,1.083v0.035
			c0,0.817,0.532,1.083,2.682,1.634c2.522,0.657,3.943,1.563,3.943,3.73v0.035c0,2.469-1.883,3.854-4.565,3.854
			C440.073,270.427,438.172,269.77,436.681,268.438z"/>
		<path class="st1" d="M448.968,268.438l1.616-1.936c1.119,0.923,2.291,1.51,3.712,1.51c1.119,0,1.794-0.444,1.794-1.172v-0.036
			c0-0.692-0.427-1.048-2.504-1.581c-2.505-0.64-4.121-1.332-4.121-3.801v-0.036c0-2.256,1.812-3.748,4.352-3.748
			c1.812,0,3.356,0.568,4.618,1.581l-1.421,2.061c-1.102-0.764-2.185-1.226-3.232-1.226c-1.049,0-1.599,0.479-1.599,1.083v0.035
			c0,0.817,0.532,1.083,2.682,1.634c2.522,0.657,3.943,1.563,3.943,3.73v0.035c0,2.469-1.883,3.854-4.565,3.854
			C452.36,270.427,450.459,269.77,448.968,268.438z"/>
		<path class="st1" d="M376.799,279.123h2.949l3.268,5.258l3.268-5.258h2.948v12.433h-2.717v-8.117l-3.499,5.311h-0.071
			l-3.463-5.257v8.063h-2.682V279.123z"/>
		<path class="st1" d="M393.436,279.123h2.735v12.433h-2.735V279.123z"/>
		<path class="st1" d="M400.379,279.123h2.522l5.826,7.655v-7.655h2.699v12.433H409.1l-6.021-7.904v7.904h-2.699V279.123z"/>
		<path class="st1" d="M415.631,279.123h2.735v12.433h-2.735V279.123z"/>
		<path class="st1" d="M422.573,279.123h2.521l5.826,7.655v-7.655h2.699v12.433h-2.326l-6.021-7.904v7.904h-2.699V279.123z"/>
		<path class="st1" d="M437.15,285.375v-0.035c0-3.535,2.753-6.43,6.519-6.43c2.237,0,3.588,0.604,4.884,1.705l-1.723,2.078
			c-0.959-0.799-1.812-1.261-3.25-1.261c-1.989,0-3.57,1.758-3.57,3.872v0.036c0,2.273,1.563,3.943,3.766,3.943
			c0.994,0,1.883-0.249,2.575-0.746v-1.776h-2.753v-2.362h5.399v5.399c-1.278,1.083-3.037,1.972-5.311,1.972
			C439.814,291.77,437.15,289.052,437.15,285.375z"/>
	</g>
</g>
<g>
	<g>
		<path class="st0" d="M348,8.89h4.054c3.417,0,5.778,2.346,5.778,5.406v0.031c0,3.06-2.361,5.437-5.778,5.437H348V8.89z
			 M349.911,10.629v7.394h2.144c2.284,0,3.775-1.538,3.775-3.666v-0.031c0-2.128-1.491-3.697-3.775-3.697H349.911z"/>
		<path class="st0" d="M363.925,8.812h1.771l4.784,10.951h-2.019l-1.103-2.625h-5.142l-1.118,2.625h-1.958L363.925,8.812z
			 M366.659,15.445l-1.88-4.349l-1.864,4.349H366.659z"/>
		<path class="st0" d="M374.94,10.661h-3.449V8.89h8.823v1.771h-3.448v9.103h-1.926V10.661z"/>
		<path class="st0" d="M386.11,8.812h1.771l4.784,10.951h-2.019l-1.103-2.625h-5.142l-1.118,2.625h-1.958L386.11,8.812z
			 M388.844,15.445l-1.88-4.349l-1.864,4.349H388.844z"/>
		<path class="st0" d="M398.556,14.357v-0.031c0-3.091,2.314-5.624,5.607-5.624c2.004,0,3.215,0.699,4.256,1.693l-1.227,1.414
			c-0.87-0.808-1.802-1.352-3.045-1.352c-2.066,0-3.588,1.709-3.588,3.837v0.031c0,2.128,1.507,3.852,3.588,3.852
			c1.336,0,2.19-0.528,3.123-1.398l1.227,1.243c-1.134,1.181-2.376,1.926-4.412,1.926C400.917,19.95,398.556,17.48,398.556,14.357z"
			/>
		<path class="st0" d="M410.425,8.89h1.911v9.134h5.716v1.74h-7.627V8.89z"/>
		<path class="st0" d="M419.965,8.89h8.062v1.709h-6.151v2.827h5.452v1.708h-5.452v2.92h6.229v1.708h-8.139V8.89z"/>
		<path class="st0" d="M434.147,8.812h1.771l4.784,10.951h-2.02l-1.103-2.625h-5.142l-1.119,2.625h-1.957L434.147,8.812z
			 M436.882,15.445l-1.88-4.349l-1.864,4.349H436.882z"/>
		<path class="st0" d="M442.492,8.89h1.771l5.825,7.519V8.89h1.879v10.874h-1.6l-5.996-7.736v7.736h-1.879V8.89z"/>
		<path class="st0" d="M454.797,8.89h1.91v10.874h-1.91V8.89z"/>
		<path class="st0" d="M459.535,8.89h1.771l5.825,7.519V8.89h1.879v10.874h-1.6l-5.996-7.736v7.736h-1.879V8.89z"/>
		<path class="st0" d="M471.249,14.357v-0.031c0-3.045,2.33-5.624,5.608-5.624c1.895,0,3.06,0.528,4.178,1.476l-1.211,1.444
			c-0.839-0.714-1.662-1.165-3.045-1.165c-2.004,0-3.526,1.755-3.526,3.837v0.031c0,2.237,1.476,3.883,3.697,3.883
			c1.025,0,1.957-0.326,2.625-0.823v-2.035h-2.78v-1.662h4.629v4.567c-1.071,0.917-2.609,1.693-4.536,1.693
			C473.486,19.95,471.249,17.526,471.249,14.357z"/>
	</g>
</g>
<g>
	<g>
		<path class="st0" d="M629.955,183.061h4.054c3.417,0,5.778,2.346,5.778,5.406v0.031c0,3.06-2.361,5.437-5.778,5.437h-4.054
			V183.061z M631.865,184.8v7.394h2.144c2.283,0,3.774-1.538,3.774-3.666v-0.031c0-2.128-1.491-3.697-3.774-3.697H631.865z"/>
		<path class="st0" d="M645.878,182.983h1.771l4.784,10.951h-2.02l-1.103-2.625h-5.142l-1.119,2.625h-1.957L645.878,182.983z
			 M648.612,189.616l-1.88-4.349l-1.864,4.349H648.612z"/>
		<path class="st0" d="M656.894,184.832h-3.448v-1.771h8.823v1.771h-3.448v9.103h-1.927V184.832z"/>
		<path class="st0" d="M668.064,182.983h1.771l4.784,10.951h-2.02l-1.103-2.625h-5.142l-1.119,2.625h-1.957L668.064,182.983z
			 M670.799,189.616l-1.88-4.349l-1.864,4.349H670.799z"/>
		<path class="st0" d="M681.1,183.061h1.91v10.874h-1.91V183.061z"/>
		<path class="st0" d="M685.839,183.061h1.771l5.825,7.519v-7.519h1.879v10.874h-1.6l-5.996-7.736v7.736h-1.879V183.061z"/>
		<path class="st0" d="M700.705,184.832h-3.448v-1.771h8.823v1.771h-3.448v9.103h-1.927V184.832z"/>
		<path class="st0" d="M708.024,183.061h8.062v1.709h-6.151v2.827h5.452v1.708h-5.452v2.92h6.229v1.708h-8.139V183.061z"/>
		<path class="st0" d="M717.874,188.528v-0.031c0-3.045,2.33-5.624,5.608-5.624c1.895,0,3.06,0.528,4.178,1.476l-1.211,1.444
			c-0.839-0.714-1.662-1.165-3.045-1.165c-2.004,0-3.526,1.755-3.526,3.837v0.031c0,2.237,1.476,3.883,3.697,3.883
			c1.025,0,1.957-0.326,2.625-0.823v-2.035h-2.78v-1.662h4.629v4.567c-1.071,0.917-2.609,1.693-4.536,1.693
			C720.111,194.121,717.874,191.697,717.874,188.528z"/>
		<path class="st0" d="M730.459,183.061h4.846c1.367,0,2.439,0.404,3.138,1.087c0.575,0.59,0.901,1.398,0.901,2.346v0.031
			c0,1.787-1.072,2.858-2.578,3.293l2.936,4.116h-2.269l-2.671-3.79h-2.393v3.79h-1.91V183.061z M735.165,188.451
			c1.367,0,2.237-0.714,2.237-1.817v-0.031c0-1.165-0.839-1.802-2.253-1.802h-2.78v3.65H735.165z"/>
		<path class="st0" d="M745.466,182.983h1.771l4.784,10.951h-2.02l-1.103-2.625h-5.142l-1.119,2.625h-1.957L745.466,182.983z
			 M748.2,189.616l-1.88-4.349l-1.864,4.349H748.2z"/>
		<path class="st0" d="M756.48,184.832h-3.448v-1.771h8.823v1.771h-3.448v9.103h-1.927V184.832z"/>
		<path class="st0" d="M763.908,183.061h1.91v10.874h-1.91V183.061z"/>
		<path class="st0" d="M768.164,188.528v-0.031c0-3.06,2.361-5.624,5.701-5.624s5.67,2.532,5.67,5.592v0.031
			c0,3.06-2.361,5.623-5.701,5.623S768.164,191.588,768.164,188.528z M777.531,188.528v-0.031c0-2.113-1.538-3.868-3.697-3.868
			s-3.666,1.724-3.666,3.837v0.031c0,2.112,1.538,3.852,3.697,3.852S777.531,190.641,777.531,188.528z"/>
		<path class="st0" d="M781.774,183.061h1.771l5.825,7.519v-7.519h1.879v10.874h-1.6l-5.996-7.736v7.736h-1.879V183.061z"/>
	</g>
</g>
<g>
	<g>
		<path class="st0" d="M86.61,167.562h1.911v5.468l5.173-5.468h2.361l-4.536,4.676l4.738,6.198h-2.33l-3.712-4.893l-1.693,1.74
			v3.153H86.61V167.562z"/>
		<path class="st0" d="M97.812,167.562h1.771l5.825,7.519v-7.519h1.88v10.874h-1.6l-5.996-7.736v7.736h-1.879V167.562z"/>
		<path class="st0" d="M109.526,173.029v-0.031c0-3.06,2.361-5.624,5.701-5.624s5.67,2.532,5.67,5.592v0.031
			c0,3.06-2.361,5.623-5.701,5.623C111.856,178.622,109.526,176.089,109.526,173.029z M118.893,173.029v-0.031
			c0-2.113-1.538-3.868-3.697-3.868c-2.159,0-3.666,1.724-3.666,3.837v0.031c0,2.112,1.538,3.852,3.697,3.852
			S118.893,175.142,118.893,173.029z"/>
		<path class="st0" d="M122.297,167.562h2.066l2.594,8.062l2.672-8.093h1.615l2.672,8.093l2.594-8.062h2.003l-3.774,10.951h-1.662
			l-2.672-7.813l-2.671,7.813h-1.647L122.297,167.562z"/>
		<path class="st0" d="M140.396,167.562h1.911v9.134h5.716v1.74h-7.627V167.562z"/>
		<path class="st0" d="M149.936,167.562h8.062v1.709h-6.151v2.827h5.452v1.708h-5.452v2.92h6.229v1.708h-8.14V167.562z"/>
		<path class="st0" d="M160.267,167.562h4.054c3.417,0,5.778,2.346,5.778,5.406v0.031c0,3.06-2.361,5.437-5.778,5.437h-4.054
			V167.562z M162.178,169.301v7.394h2.144c2.284,0,3.775-1.538,3.775-3.666v-0.031c0-2.128-1.491-3.697-3.775-3.697H162.178z"/>
		<path class="st0" d="M171.857,173.029v-0.031c0-3.045,2.33-5.624,5.607-5.624c1.895,0,3.06,0.528,4.179,1.476l-1.212,1.444
			c-0.838-0.714-1.662-1.165-3.044-1.165c-2.004,0-3.526,1.755-3.526,3.837v0.031c0,2.237,1.476,3.883,3.697,3.883
			c1.025,0,1.958-0.326,2.625-0.823v-2.035h-2.78v-1.662h4.629v4.567c-1.072,0.917-2.609,1.693-4.536,1.693
			C174.094,178.622,171.857,176.198,171.857,173.029z"/>
		<path class="st0" d="M184.442,167.562h8.062v1.709h-6.151v2.827h5.452v1.708h-5.452v2.92h6.229v1.708h-8.14V167.562z"/>
		<path class="st0" d="M46.76,186.205h4.847c1.367,0,2.438,0.404,3.138,1.087c0.575,0.59,0.901,1.398,0.901,2.346v0.031
			c0,1.787-1.072,2.858-2.579,3.293l2.936,4.116h-2.268l-2.672-3.79H48.67v3.79H46.76V186.205z M51.466,191.595
			c1.367,0,2.237-0.714,2.237-1.817v-0.031c0-1.165-0.839-1.802-2.252-1.802H48.67v3.65H51.466z"/>
		<path class="st0" d="M57.915,186.205h8.062v1.709h-6.151v2.827h5.452v1.708h-5.452v2.92h6.229v1.708h-8.14V186.205z"/>
		<path class="st0" d="M68.247,186.205h4.287c2.548,0,4.132,1.445,4.132,3.635v0.031c0,2.439-1.958,3.712-4.35,3.712h-2.159v3.495
			h-1.911V186.205z M72.378,191.859c1.445,0,2.346-0.808,2.346-1.942v-0.031c0-1.274-0.917-1.942-2.346-1.942h-2.221v3.915H72.378z"
			/>
		<path class="st0" d="M78.547,186.205h4.847c1.367,0,2.438,0.404,3.138,1.087c0.575,0.59,0.901,1.398,0.901,2.346v0.031
			c0,1.787-1.072,2.858-2.579,3.293l2.936,4.116h-2.268l-2.672-3.79h-2.392v3.79h-1.911V186.205z M83.253,191.595
			c1.367,0,2.237-0.714,2.237-1.817v-0.031c0-1.165-0.839-1.802-2.252-1.802h-2.781v3.65H83.253z"/>
		<path class="st0" d="M89.702,186.205h8.062v1.709h-6.151v2.827h5.452v1.708h-5.452v2.92h6.229v1.708h-8.14V186.205z"/>
		<path class="st0" d="M99.304,195.494l1.149-1.367c1.041,0.901,2.097,1.414,3.433,1.414c1.18,0,1.926-0.56,1.926-1.367v-0.031
			c0-0.776-0.435-1.196-2.454-1.662c-2.314-0.559-3.619-1.242-3.619-3.246v-0.031c0-1.864,1.553-3.153,3.712-3.153
			c1.584,0,2.843,0.481,3.945,1.367l-1.025,1.444c-0.979-0.73-1.958-1.118-2.952-1.118c-1.118,0-1.771,0.575-1.771,1.289v0.031
			c0,0.839,0.497,1.211,2.594,1.708c2.299,0.559,3.479,1.382,3.479,3.185v0.031c0,2.035-1.6,3.247-3.883,3.247
			C102.177,197.234,100.608,196.659,99.304,195.494z"/>
		<path class="st0" d="M109.899,186.205h8.062v1.709h-6.151v2.827h5.452v1.708h-5.452v2.92h6.229v1.708h-8.14V186.205z"/>
		<path class="st0" d="M120.231,186.205h1.771l5.825,7.519v-7.519h1.88v10.874h-1.6l-5.996-7.736v7.736h-1.879V186.205z"/>
		<path class="st0" d="M135.099,187.976h-3.448v-1.771h8.823v1.771h-3.448v9.103h-1.926V187.976z"/>
		<path class="st0" d="M146.269,186.127h1.771l4.785,10.951h-2.02l-1.103-2.625h-5.142l-1.118,2.625h-1.958L146.269,186.127z
			 M149.003,192.76l-1.88-4.349l-1.864,4.349H149.003z"/>
		<path class="st0" d="M157.285,187.976h-3.449v-1.771h8.823v1.771h-3.448v9.103h-1.926V187.976z"/>
		<path class="st0" d="M164.711,186.205h1.911v10.874h-1.911V186.205z"/>
		<path class="st0" d="M168.968,191.673v-0.031c0-3.06,2.361-5.624,5.701-5.624s5.67,2.532,5.67,5.592v0.031
			c0,3.06-2.361,5.623-5.701,5.623C171.298,197.265,168.968,194.733,168.968,191.673z M178.335,191.673v-0.031
			c0-2.113-1.538-3.868-3.697-3.868c-2.159,0-3.666,1.724-3.666,3.837v0.031c0,2.112,1.538,3.852,3.697,3.852
			S178.335,193.786,178.335,191.673z"/>
		<path class="st0" d="M182.578,186.205h1.771l5.825,7.519v-7.519h1.88v10.874h-1.6l-5.996-7.736v7.736h-1.879V186.205z"/>
	</g>
</g>
<g>
	<g>
		<path class="st0" d="M629.957,332.151h4.054c3.417,0,5.778,2.346,5.778,5.406v0.031c0,3.06-2.361,5.437-5.778,5.437h-4.054
			V332.151z M631.867,333.891v7.394h2.144c2.283,0,3.774-1.538,3.774-3.666v-0.031c0-2.128-1.491-3.697-3.774-3.697H631.867z"/>
		<path class="st0" d="M645.88,332.074h1.771l4.784,10.951h-2.02l-1.103-2.625h-5.142l-1.119,2.625h-1.957L645.88,332.074z
			 M648.614,338.707l-1.88-4.349l-1.864,4.349H648.614z"/>
		<path class="st0" d="M656.896,333.922h-3.448v-1.771h8.823v1.771h-3.448v9.103h-1.927V333.922z"/>
		<path class="st0" d="M668.066,332.074h1.771l4.784,10.951h-2.02L671.5,340.4h-5.142l-1.119,2.625h-1.957L668.066,332.074z
			 M670.801,338.707l-1.88-4.349l-1.864,4.349H670.801z"/>
		<path class="st0" d="M680.263,341.44l1.149-1.367c1.041,0.901,2.097,1.414,3.433,1.414c1.181,0,1.927-0.56,1.927-1.367v-0.031
			c0-0.776-0.436-1.196-2.455-1.662c-2.314-0.559-3.619-1.242-3.619-3.246v-0.031c0-1.864,1.554-3.153,3.713-3.153
			c1.584,0,2.843,0.481,3.945,1.367l-1.025,1.444c-0.979-0.73-1.957-1.118-2.951-1.118c-1.118,0-1.771,0.575-1.771,1.289v0.031
			c0,0.839,0.497,1.211,2.594,1.708c2.299,0.559,3.479,1.382,3.479,3.185v0.031c0,2.035-1.6,3.247-3.883,3.247
			C683.137,343.18,681.567,342.605,680.263,341.44z"/>
		<path class="st0" d="M690.859,332.151h8.062v1.709h-6.151v2.827h5.452v1.708h-5.452v2.92h6.229v1.708h-8.139V332.151z"/>
		<path class="st0" d="M701.19,332.151h1.91v9.134h5.717v1.74h-7.627V332.151z"/>
		<path class="st0" d="M710.729,332.151h8.062v1.709h-6.151v2.827h5.452v1.708h-5.452v2.92h6.229v1.708h-8.139V332.151z"/>
		<path class="st0" d="M720.579,337.619v-0.031c0-3.091,2.315-5.624,5.608-5.624c2.004,0,3.215,0.699,4.256,1.693l-1.228,1.414
			c-0.869-0.808-1.802-1.352-3.044-1.352c-2.066,0-3.589,1.709-3.589,3.837v0.031c0,2.128,1.507,3.852,3.589,3.852
			c1.336,0,2.189-0.528,3.122-1.398l1.227,1.243c-1.134,1.181-2.376,1.926-4.411,1.926
			C722.94,343.211,720.579,340.742,720.579,337.619z"/>
		<path class="st0" d="M735.12,333.922h-3.448v-1.771h8.823v1.771h-3.448v9.103h-1.927V333.922z"/>
		<path class="st0" d="M742.548,332.151h1.91v10.874h-1.91V332.151z"/>
		<path class="st0" d="M746.804,337.619v-0.031c0-3.06,2.361-5.624,5.701-5.624s5.67,2.532,5.67,5.592v0.031
			c0,3.06-2.361,5.623-5.701,5.623S746.804,340.679,746.804,337.619z M756.171,337.619v-0.031c0-2.113-1.538-3.868-3.697-3.868
			s-3.666,1.724-3.666,3.837v0.031c0,2.112,1.538,3.852,3.697,3.852S756.171,339.732,756.171,337.619z"/>
		<path class="st0" d="M760.414,332.151h1.771l5.825,7.519v-7.519h1.879v10.874h-1.6l-5.996-7.736v7.736h-1.879V332.151z"/>
	</g>
</g>
<g>
	<g>
		<path class="st0" d="M82.743,332.151h4.054c3.417,0,5.778,2.346,5.778,5.406v0.031c0,3.06-2.361,5.437-5.778,5.437h-4.054V332.151
			z M84.653,333.891v7.394h2.144c2.284,0,3.775-1.538,3.775-3.666v-0.031c0-2.128-1.491-3.697-3.775-3.697H84.653z"/>
		<path class="st0" d="M98.667,332.074h1.771l4.784,10.951h-2.019L102.1,340.4h-5.142l-1.118,2.625h-1.958L98.667,332.074z
			 M101.401,338.707l-1.88-4.349l-1.864,4.349H101.401z"/>
		<path class="st0" d="M109.682,333.922h-3.449v-1.771h8.823v1.771h-3.448v9.103h-1.926V333.922z"/>
		<path class="st0" d="M120.853,332.074h1.771l4.784,10.951h-2.019l-1.103-2.625h-5.142l-1.118,2.625h-1.958L120.853,332.074z
			 M123.586,338.707l-1.88-4.349l-1.864,4.349H123.586z"/>
		<path class="st0" d="M133.779,332.151h2.035l3.309,5.142l3.309-5.142h2.035v10.874h-1.911v-7.798l-3.433,5.126h-0.062
			l-3.402-5.095v7.767h-1.879V332.151z"/>
		<path class="st0" d="M147.296,332.151h1.911v10.874h-1.911V332.151z"/>
		<path class="st0" d="M152.034,332.151h1.771l5.825,7.519v-7.519h1.88v10.874h-1.6l-5.996-7.736v7.736h-1.879V332.151z"/>
		<path class="st0" d="M164.339,332.151h1.911v10.874h-1.911V332.151z"/>
		<path class="st0" d="M169.077,332.151h1.771l5.825,7.519v-7.519h1.88v10.874h-1.6l-5.996-7.736v7.736h-1.879V332.151z"/>
		<path class="st0" d="M180.792,337.619v-0.031c0-3.045,2.33-5.624,5.607-5.624c1.895,0,3.06,0.528,4.179,1.476l-1.212,1.444
			c-0.838-0.714-1.662-1.165-3.044-1.165c-2.004,0-3.526,1.755-3.526,3.837v0.031c0,2.237,1.476,3.883,3.697,3.883
			c1.025,0,1.957-0.326,2.625-0.823v-2.035h-2.78v-1.662h4.629v4.567c-1.072,0.917-2.609,1.693-4.536,1.693
			C183.028,343.211,180.792,340.788,180.792,337.619z"/>
	</g>
</g>
<g>
	<g>
		<path class="st0" d="M306.863,510.041h4.054c3.417,0,5.778,2.345,5.778,5.405v0.031c0,3.06-2.361,5.437-5.778,5.437h-4.054
			V510.041z M308.773,511.78v7.394h2.144c2.284,0,3.775-1.537,3.775-3.665v-0.031c0-2.128-1.491-3.697-3.775-3.697H308.773z"/>
		<path class="st0" d="M322.787,509.963h1.771l4.784,10.951h-2.019l-1.103-2.625h-5.142l-1.118,2.625h-1.958L322.787,509.963z
			 M325.521,516.596l-1.88-4.35l-1.864,4.35H325.521z"/>
		<path class="st0" d="M333.802,511.812h-3.449v-1.771h8.823v1.771h-3.448v9.103h-1.926V511.812z"/>
		<path class="st0" d="M344.973,509.963h1.771l4.784,10.951h-2.019l-1.103-2.625h-5.142l-1.118,2.625h-1.958L344.973,509.963z
			 M347.707,516.596l-1.88-4.35l-1.864,4.35H347.707z"/>
		<path class="st0" d="M360.571,511.812h-3.448v-1.771h8.823v1.771h-3.448v9.103h-1.926V511.812z"/>
		<path class="st0" d="M367.889,510.041h4.847c1.367,0,2.438,0.403,3.138,1.087c0.575,0.591,0.901,1.398,0.901,2.346v0.031
			c0,1.786-1.072,2.857-2.579,3.293l2.936,4.116h-2.268l-2.672-3.79H369.8v3.79h-1.911V510.041z M372.596,515.431
			c1.367,0,2.237-0.715,2.237-1.817v-0.031c0-1.165-0.839-1.802-2.252-1.802h-2.78v3.65H372.596z"/>
		<path class="st0" d="M382.896,509.963h1.771l4.784,10.951h-2.019l-1.103-2.625h-5.142l-1.118,2.625h-1.958L382.896,509.963z
			 M385.63,516.596l-1.88-4.35l-1.864,4.35H385.63z"/>
		<path class="st0" d="M391.24,510.041h1.771l5.825,7.518v-7.518h1.88v10.873h-1.6l-5.996-7.735v7.735h-1.879V510.041z"/>
		<path class="st0" d="M402.706,519.33l1.149-1.367c1.041,0.9,2.097,1.413,3.433,1.413c1.18,0,1.926-0.559,1.926-1.366v-0.031
			c0-0.777-0.435-1.196-2.454-1.662c-2.314-0.56-3.619-1.243-3.619-3.247v-0.03c0-1.864,1.553-3.153,3.712-3.153
			c1.584,0,2.843,0.481,3.945,1.366l-1.025,1.445c-0.979-0.73-1.958-1.119-2.952-1.119c-1.118,0-1.771,0.575-1.771,1.29v0.03
			c0,0.839,0.497,1.212,2.594,1.709c2.299,0.56,3.479,1.383,3.479,3.185v0.031c0,2.034-1.6,3.246-3.883,3.246
			C405.58,521.069,404.011,520.495,402.706,519.33z"/>
		<path class="st0" d="M413.302,510.041h8.093v1.739h-6.183v2.967h5.483v1.74h-5.483v4.427h-1.91V510.041z"/>
		<path class="st0" d="M422.934,515.509v-0.031c0-3.061,2.361-5.623,5.701-5.623s5.67,2.531,5.67,5.592v0.031
			c0,3.06-2.361,5.623-5.701,5.623S422.934,518.568,422.934,515.509z M432.301,515.509v-0.031c0-2.112-1.538-3.868-3.697-3.868
			s-3.666,1.725-3.666,3.837v0.031c0,2.112,1.538,3.853,3.697,3.853S432.301,517.621,432.301,515.509z"/>
		<path class="st0" d="M436.544,510.041h4.846c1.367,0,2.439,0.403,3.138,1.087c0.575,0.591,0.901,1.398,0.901,2.346v0.031
			c0,1.786-1.072,2.857-2.579,3.293l2.937,4.116h-2.269l-2.671-3.79h-2.393v3.79h-1.91V510.041z M441.25,515.431
			c1.367,0,2.237-0.715,2.237-1.817v-0.031c0-1.165-0.839-1.802-2.253-1.802h-2.78v3.65H441.25z"/>
		<path class="st0" d="M447.699,510.041h2.034l3.309,5.142l3.309-5.142h2.035v10.873h-1.91v-7.798l-3.434,5.126h-0.062l-3.402-5.095
			v7.767h-1.879V510.041z"/>
		<path class="st0" d="M464.958,509.963h1.771l4.784,10.951h-2.02l-1.103-2.625h-5.142l-1.119,2.625h-1.957L464.958,509.963z
			 M467.692,516.596l-1.88-4.35l-1.864,4.35H467.692z"/>
		<path class="st0" d="M475.974,511.812h-3.448v-1.771h8.823v1.771H477.9v9.103h-1.927V511.812z"/>
		<path class="st0" d="M483.401,510.041h1.91v10.873h-1.91V510.041z"/>
		<path class="st0" d="M487.657,515.509v-0.031c0-3.061,2.361-5.623,5.701-5.623s5.67,2.531,5.67,5.592v0.031
			c0,3.06-2.361,5.623-5.701,5.623S487.657,518.568,487.657,515.509z M497.024,515.509v-0.031c0-2.112-1.538-3.868-3.697-3.868
			s-3.666,1.725-3.666,3.837v0.031c0,2.112,1.538,3.853,3.697,3.853S497.024,517.621,497.024,515.509z"/>
		<path class="st0" d="M501.268,510.041h1.771l5.825,7.518v-7.518h1.879v10.873h-1.6l-5.996-7.735v7.735h-1.879V510.041z"/>
	</g>
</g>
<linearGradient id="SVGID_2_" gradientUnits="userSpaceOnUse" x1="351.4658" y1="150.9417" x2="470.3538" y2="82.3017">
	<stop  offset="0" style="stop-color:#00B4E5"/>
	<stop  offset="1" style="stop-color:#1CD0BB"/>
</linearGradient>
<path class="st3" d="M410.91,185.275c-37.856,0-68.653-30.797-68.653-68.653s30.797-68.654,68.653-68.654
	s68.653,30.798,68.653,68.654S448.766,185.275,410.91,185.275z M410.91,59.065c-31.737,0-57.556,25.82-57.556,57.556
	s25.819,57.556,57.556,57.556c31.736,0,57.556-25.819,57.556-57.556S442.646,59.065,410.91,59.065z"/>
<linearGradient id="SVGID_3_" gradientUnits="userSpaceOnUse" x1="351.4659" y1="449.8597" x2="470.3539" y2="381.2196">
	<stop  offset="0" style="stop-color:#00B4E5"/>
	<stop  offset="1" style="stop-color:#1CD0BB"/>
</linearGradient>
<path class="st4" d="M410.91,484.193c-37.856,0-68.653-30.797-68.653-68.654c0-37.856,30.797-68.653,68.653-68.653
	s68.653,30.797,68.653,68.653C479.563,453.396,448.766,484.193,410.91,484.193z M410.91,357.984
	c-31.737,0-57.556,25.819-57.556,57.556s25.819,57.556,57.556,57.556c31.736,0,57.556-25.82,57.556-57.556
	S442.646,357.984,410.91,357.984z"/>
<linearGradient id="SVGID_4_" gradientUnits="userSpaceOnUse" x1="478.775" y1="225.1177" x2="597.663" y2="156.4777">
	<stop  offset="0" style="stop-color:#00B4E5"/>
	<stop  offset="1" style="stop-color:#1CD0BB"/>
</linearGradient>
<path class="st5" d="M538.219,259.451c-37.856,0-68.653-30.797-68.653-68.653s30.797-68.654,68.653-68.654
	s68.653,30.798,68.653,68.654S576.075,259.451,538.219,259.451z M538.219,133.241c-31.736,0-57.556,25.82-57.556,57.556
	s25.82,57.556,57.556,57.556c31.736,0,57.556-25.819,57.556-57.556S569.955,133.241,538.219,133.241z"/>
<linearGradient id="SVGID_5_" gradientUnits="userSpaceOnUse" x1="225.2562" y1="373.4696" x2="344.1445" y2="304.8294">
	<stop  offset="0" style="stop-color:#00B4E5"/>
	<stop  offset="1" style="stop-color:#1CD0BB"/>
</linearGradient>
<path class="st6" d="M284.7,407.803c-37.856,0-68.653-30.798-68.653-68.654s30.797-68.653,68.653-68.653
	s68.654,30.797,68.654,68.653S322.556,407.803,284.7,407.803z M284.7,281.593c-31.737,0-57.556,25.819-57.556,57.556
	s25.819,57.556,57.556,57.556s57.556-25.82,57.556-57.556S316.437,281.593,284.7,281.593z"/>
<linearGradient id="SVGID_6_" gradientUnits="userSpaceOnUse" x1="478.7751" y1="373.4695" x2="597.6631" y2="304.8295">
	<stop  offset="0" style="stop-color:#00B4E5"/>
	<stop  offset="1" style="stop-color:#1CD0BB"/>
</linearGradient>
<path class="st7" d="M538.219,407.803c-37.856,0-68.653-30.798-68.653-68.654s30.797-68.653,68.653-68.653
	s68.653,30.797,68.653,68.653S576.075,407.803,538.219,407.803z M538.219,281.593c-31.736,0-57.556,25.819-57.556,57.556
	s25.82,57.556,57.556,57.556c31.736,0,57.556-25.82,57.556-57.556S569.955,281.593,538.219,281.593z"/>
<g>
	<g>
		<path class="st0" d="M410.524,150.192c-15.019,0-28.016-11.373-30.231-26.454l1.979-0.291
			c2.073,14.107,14.219,24.745,28.253,24.745c14.003,0,25.852-10.188,28.172-24.223l1.973,0.326
			C438.188,139.301,425.511,150.192,410.524,150.192z"/>
		<path class="st0" d="M438.899,115.691c-1.682-14.636-13.88-25.672-28.375-25.672c-14.17,0-26.333,10.756-28.292,25.02
			l-1.981-0.272c2.095-15.249,15.109-26.748,30.273-26.748c15.512,0,28.565,11.798,30.362,27.444L438.899,115.691z"/>
	</g>
	<g>
		<path class="st0" d="M396.416,123.775c-0.104-1.532-0.157-3.103-0.157-4.669c0-17.399,6.265-31.029,14.263-31.029
			c5.577,0,10.508,6.708,12.87,17.507l-1.953,0.428c-2.117-9.68-6.402-15.935-10.917-15.935c-6.647,0-12.263,13.294-12.263,29.029
			c0,1.521,0.051,3.046,0.152,4.534L396.416,123.775z"/>
		<path class="st0" d="M410.521,150.135c-5.535,0-10.451-6.636-12.828-17.318l1.952-0.435c2.129,9.569,6.398,15.753,10.875,15.753
			c6.647,0,12.263-13.294,12.263-29.029c0-1.389-0.043-2.79-0.129-4.165l1.996-0.124c0.088,1.416,0.133,2.858,0.133,4.289
			C424.784,136.505,418.519,150.135,410.521,150.135z"/>
	</g>
	<path class="st0" d="M383.638,115.393l-1.254-1.558c3.083-2.482,8.454-4.477,15.12-5.617l0.337,1.972
		C391.505,111.273,386.461,113.122,383.638,115.393z"/>
	<path class="st0" d="M392.535,128.924c-4.187-1.106-7.595-2.599-9.854-4.317l1.211-1.592c2.053,1.561,5.218,2.936,9.154,3.975
		L392.535,128.924z"/>
	<path class="st0" d="M410.521,131.047c-2.821,0-5.613-0.139-8.297-0.414l0.203-1.989c2.617,0.268,5.34,0.403,8.094,0.403
		c11.397,0,21.865-2.378,26.667-6.06l1.217,1.587C433.196,128.567,422.512,131.047,410.521,131.047z"/>
	<path class="st0" d="M437.875,115.796c-2.128-1.936-6.008-3.655-10.924-4.839l0.469-1.944c5.313,1.28,9.395,3.114,11.801,5.304
		L437.875,115.796z"/>
	<path class="st0" d="M397.841,110.19l-0.337-1.972c4.088-0.699,8.468-1.054,13.017-1.054c2.45,0,4.887,0.105,7.247,0.314
		l-0.176,1.992c-2.301-0.203-4.68-0.306-7.071-0.306C406.085,109.164,401.819,109.509,397.841,110.19z"/>
	<path class="st0" d="M381.38,125.16c-3.19,0-5.786-2.595-5.786-5.786s2.595-5.786,5.786-5.786s5.786,2.595,5.786,5.786
		S384.571,125.16,381.38,125.16z M381.38,115.588c-2.087,0-3.786,1.698-3.786,3.786s1.698,3.786,3.786,3.786
		s3.786-1.698,3.786-3.786S383.468,115.588,381.38,115.588z"/>
	<path class="st0" d="M397.65,134.198c-3.19,0-5.786-2.595-5.786-5.786s2.595-5.786,5.786-5.786s5.786,2.595,5.786,5.786
		S400.84,134.198,397.65,134.198z M397.65,124.627c-2.087,0-3.786,1.698-3.786,3.786s1.698,3.786,3.786,3.786
		s3.786-1.698,3.786-3.786S399.737,124.627,397.65,124.627z"/>
	<path class="st0" d="M422.355,115.699c-3.19,0-5.786-2.595-5.786-5.786s2.596-5.786,5.786-5.786s5.786,2.595,5.786,5.786
		S425.546,115.699,422.355,115.699z M422.355,106.128c-2.088,0-3.786,1.698-3.786,3.786s1.698,3.786,3.786,3.786
		s3.786-1.698,3.786-3.786S424.443,106.128,422.355,106.128z"/>
	<path class="st0" d="M439.95,125.582c-3.19,0-5.785-2.595-5.785-5.786s2.595-5.786,5.785-5.786s5.786,2.596,5.786,5.786
		S443.141,125.582,439.95,125.582z M439.95,116.01c-2.087,0-3.785,1.698-3.785,3.786c0,2.087,1.698,3.786,3.785,3.786
		c2.088,0,3.786-1.698,3.786-3.786C443.736,117.708,442.038,116.01,439.95,116.01z"/>
</g>
<g>
	<g>
		<path class="st0" d="M440.28,411.418c-0.158-7.625-3.276-14.731-8.78-20.011c-5.504-5.279-12.708-8.094-20.36-7.94
			c-13.92,0.289-26.185,10.89-27.341,23.63l-1.992-0.182c1.266-13.955,14.133-25.133,29.292-25.449
			c8.161-0.168,15.896,2.848,21.785,8.497s9.227,13.254,9.396,21.414L440.28,411.418z"/>
		<polygon class="st0" points="441.546,417.466 439.026,413.408 436.507,409.351 441.281,409.197 446.054,409.044 443.8,413.255 		
			"/>
		<path class="st0" d="M412.342,442.412c-7.333,0-14.341-2.604-19.943-7.449c-6.171-5.34-9.894-12.764-10.482-20.903l1.995-0.145
			c0.549,7.607,4.028,14.545,9.796,19.535s13.138,7.438,20.74,6.886c12.536-0.906,22.884-9.729,25.748-21.955l1.947,0.457
			c-3.065,13.082-14.137,22.523-27.551,23.492C413.84,442.385,413.089,442.412,412.342,442.412z"/>
		<polygon class="st0" points="383.029,409.055 385.303,413.255 387.577,417.455 382.803,417.325 378.028,417.194 380.528,413.125 
					"/>
	</g>
	<g>
		<g>
			<path class="st0" d="M411.877,406.576c-6.868,0-14.261-1.456-14.261-4.654c0-3.197,7.393-4.653,14.261-4.653
				s14.261,1.456,14.261,4.653C426.138,405.12,418.745,406.576,411.877,406.576z M411.877,399.269
				c-7.964,0-12.261,1.883-12.261,2.653c0,0.771,4.296,2.654,12.261,2.654c7.964,0,12.261-1.884,12.261-2.654
				C424.138,401.152,419.841,399.269,411.877,399.269z"/>
			<path class="st0" d="M411.877,413.251c-6.868,0-14.261-1.456-14.261-4.653h2c0,0.771,4.296,2.653,12.261,2.653
				c7.964,0,12.261-1.883,12.261-2.653h2C426.138,411.795,418.745,413.251,411.877,413.251z"/>
			<path class="st0" d="M411.877,419.927c-6.868,0-14.261-1.456-14.261-4.653h2c0,0.771,4.296,2.653,12.261,2.653
				c7.964,0,12.261-1.883,12.261-2.653h2C426.138,418.471,418.745,419.927,411.877,419.927z"/>
			<path class="st0" d="M411.877,426.603c-6.868,0-14.261-1.456-14.261-4.653h2c0,0.771,4.296,2.653,12.261,2.653
				c7.964,0,12.261-1.883,12.261-2.653h2C426.138,425.146,418.745,426.603,411.877,426.603z"/>
			<rect x="397.628" y="401.99" class="st0" width="2" height="20.319"/>
			<rect x="424.115" y="401.99" class="st0" width="2" height="20.319"/>
		</g>
	</g>
</g>
<g>
	<path class="st0" d="M268.016,347.3c-6.402,0-13.293-1.373-13.293-4.387s6.891-4.387,13.293-4.387s13.293,1.373,13.293,4.387
		S274.418,347.3,268.016,347.3z M268.016,340.526c-7.475,0-11.156,1.734-11.293,2.394c0.137,0.646,3.818,2.38,11.293,2.38
		c7.45,0,11.131-1.723,11.292-2.387C279.147,342.249,275.466,340.526,268.016,340.526z"/>
	<path class="st0" d="M268.016,353.488c-6.402,0-13.293-1.373-13.293-4.387h2c0.137,0.652,3.818,2.387,11.293,2.387
		c7.476,0,11.157-1.734,11.294-2.394l2,0.007C281.309,352.115,274.418,353.488,268.016,353.488z"/>
	<path class="st0" d="M268.016,359.676c-6.402,0-13.293-1.373-13.293-4.387h2c0.137,0.652,3.818,2.387,11.293,2.387
		c7.476,0,11.157-1.734,11.294-2.394l2,0.007C281.309,358.304,274.418,359.676,268.016,359.676z"/>
	<path class="st0" d="M268.016,365.865c-6.402,0-13.293-1.373-13.293-4.387h2c0.137,0.652,3.818,2.387,11.293,2.387
		c7.476,0,11.157-1.734,11.294-2.394l2,0.007C281.309,364.492,274.418,365.865,268.016,365.865z"/>
	<rect x="254.733" y="342.976" class="st0" width="2" height="18.837"/>
	<rect x="279.288" y="342.976" class="st0" width="2" height="18.837"/>
	<path class="st0" d="M306.024,347.3c-6.402,0-13.293-1.373-13.293-4.387s6.891-4.387,13.293-4.387s13.293,1.373,13.293,4.387
		S312.427,347.3,306.024,347.3z M306.024,340.526c-7.475,0-11.156,1.734-11.293,2.394c0.137,0.646,3.818,2.38,11.293,2.38
		c7.45,0,11.131-1.723,11.292-2.387C317.156,342.249,313.475,340.526,306.024,340.526z"/>
	<path class="st0" d="M306.024,353.488c-6.402,0-13.293-1.373-13.293-4.387h2c0.137,0.652,3.818,2.387,11.293,2.387
		c7.476,0,11.157-1.734,11.294-2.394l2,0.007C319.318,352.115,312.427,353.488,306.024,353.488z"/>
	<path class="st0" d="M306.024,359.676c-6.402,0-13.293-1.373-13.293-4.387h2c0.137,0.652,3.818,2.387,11.293,2.387
		c7.476,0,11.157-1.734,11.294-2.394l2,0.007C319.318,358.304,312.427,359.676,306.024,359.676z"/>
	<path class="st0" d="M306.024,365.865c-6.402,0-13.293-1.373-13.293-4.387h2c0.137,0.652,3.818,2.387,11.293,2.387
		c7.476,0,11.157-1.734,11.294-2.394l2,0.007C319.318,364.492,312.427,365.865,306.024,365.865z"/>
	<rect x="292.742" y="342.976" class="st0" width="2" height="18.837"/>
	<rect x="317.297" y="342.976" class="st0" width="2" height="18.837"/>
	<path class="st0" d="M287.02,314.84c-6.402,0-13.293-1.373-13.293-4.387s6.891-4.387,13.293-4.387s13.293,1.373,13.293,4.387
		S293.422,314.84,287.02,314.84z M287.02,308.066c-7.475,0-11.156,1.734-11.293,2.394c0.137,0.646,3.818,2.38,11.293,2.38
		c7.45,0,11.131-1.723,11.292-2.387C298.151,309.789,294.47,308.066,287.02,308.066z"/>
	<path class="st0" d="M287.02,321.028c-6.402,0-13.293-1.373-13.293-4.387h2c0.137,0.652,3.818,2.387,11.293,2.387
		c7.476,0,11.157-1.734,11.294-2.394l2,0.007C300.313,319.655,293.422,321.028,287.02,321.028z"/>
	<path class="st0" d="M287.02,327.216c-6.402,0-13.293-1.373-13.293-4.387h2c0.137,0.652,3.818,2.387,11.293,2.387
		c7.476,0,11.157-1.734,11.294-2.394l2,0.007C300.313,325.844,293.422,327.216,287.02,327.216z"/>
	<path class="st0" d="M287.02,333.405c-6.402,0-13.293-1.373-13.293-4.387h2c0.137,0.652,3.818,2.387,11.293,2.387
		c7.476,0,11.157-1.734,11.294-2.394l2,0.007C300.313,332.032,293.422,333.405,287.02,333.405z"/>
	<rect x="273.737" y="310.516" class="st0" width="2" height="18.837"/>
	<rect x="298.292" y="310.516" class="st0" width="2" height="18.837"/>
	<rect x="280.309" y="349.072" class="st0" width="13.422" height="2"/>
	
		<rect x="267.846" y="334.186" transform="matrix(0.7071 -0.7071 0.7071 0.7071 -156.8739 291.6439)" class="st0" width="11.525" height="2"/>
	
		<rect x="299.566" y="329.423" transform="matrix(0.7071 -0.7071 0.7071 0.7071 -148.9783 310.7058)" class="st0" width="2" height="11.525"/>
</g>
<g>
	<g>
		<circle class="st0" cx="411.714" cy="51.733" r="21.593"/>
		<path class="st8" d="M411.727,74.544c-0.158,0-0.315-0.002-0.474-0.005c-6.092-0.124-11.771-2.611-15.992-7.006
			c-4.22-4.395-6.477-10.17-6.354-16.262c0.254-12.576,10.736-22.598,23.268-22.345c12.575,0.255,22.599,10.693,22.345,23.268l0,0
			c-0.123,6.092-2.611,11.771-7.006,15.991C423.233,72.296,417.643,74.544,411.727,74.544z M411.709,31.357
			c-11.046,0-20.141,8.87-20.366,19.962c-0.11,5.442,1.905,10.6,5.675,14.526c3.77,3.925,8.843,6.148,14.284,6.258
			c11.266,0.24,20.556-8.726,20.783-19.958c0.228-11.232-8.726-20.556-19.958-20.784C411.987,31.359,411.847,31.357,411.709,31.357z
			"/>
	</g>
	<g>
		<path class="st1" d="M410.162,46.679l-2.723,0.611l-0.653-2.811l4.488-1.242l2.331,0.047l-0.316,15.649l-3.374-0.068
			L410.162,46.679z"/>
	</g>
</g>
<g>
	<g>
		<circle class="st0" cx="598.815" cy="190.121" r="21.593"/>
		<path class="st8" d="M598.828,212.932c-0.158,0-0.316-0.002-0.475-0.005c-6.093-0.124-11.771-2.611-15.992-7.006
			c-4.221-4.395-6.477-10.17-6.354-16.261c0.255-12.575,10.651-22.584,23.269-22.345c12.575,0.254,22.599,10.692,22.345,23.268
			l-1.218-0.024l1.218,0.024c-0.123,6.092-2.611,11.771-7.006,15.992C610.335,210.684,604.744,212.932,598.828,212.932z
			 M598.809,169.746c-11.045,0-20.14,8.87-20.365,19.963c-0.11,5.441,1.905,10.6,5.675,14.525s8.843,6.148,14.284,6.258
			c5.464,0.123,10.601-1.905,14.525-5.674c3.926-3.77,6.147-8.843,6.258-14.284c0.11-5.441-1.905-10.6-5.675-14.525
			s-8.843-6.148-14.283-6.258C599.088,169.747,598.947,169.746,598.809,169.746z"/>
	</g>
	<g>
		<path class="st1" d="M593.087,194.442l5.258-4.135c1.964-1.559,2.736-2.387,2.762-3.674c0.026-1.31-0.825-2.038-2.046-2.062
			c-1.198-0.024-2.033,0.625-3.216,2.022l-2.358-1.979c1.573-2.056,3.084-3.158,5.858-3.102c3.22,0.065,5.312,1.995,5.252,4.903
			l-0.001,0.044c-0.052,2.597-1.41,3.857-4.205,5.933l-2.57,1.902l6.77,0.137l-0.06,2.952l-11.498-0.233L593.087,194.442z"/>
	</g>
</g>
<g>
	<g>
		<circle class="st0" cx="224.614" cy="190.121" r="21.593"/>
		<path class="st8" d="M224.626,212.932c-0.158,0-0.315-0.002-0.475-0.005c-12.575-0.254-22.599-10.692-22.344-23.268
			c0.255-12.576,10.675-22.554,23.269-22.345c12.575,0.254,22.599,10.692,22.344,23.268l-1.218-0.024l1.218,0.024
			c-0.124,6.092-2.611,11.771-7.006,15.992C236.133,210.684,230.542,212.932,224.626,212.932z M224.607,169.746
			c-11.045,0-20.14,8.87-20.365,19.963c-0.228,11.232,8.726,20.556,19.958,20.783c5.431,0.109,10.6-1.905,14.526-5.674
			c3.925-3.77,6.148-8.842,6.258-14.284c0.11-5.441-1.905-10.6-5.675-14.525s-8.842-6.148-14.283-6.258
			C224.886,169.747,224.747,169.746,224.607,169.746z"/>
	</g>
	<g>
		<path class="st1" d="M219.269,195.783c-1.109-1.154-1.786-2.834-1.723-5.919l0.001-0.044c0.097-4.794,2.347-8.435,6.986-8.341
			c2.109,0.042,3.473,0.692,4.827,1.807l-1.852,2.605c-1.006-0.798-1.817-1.28-3.149-1.307c-2.331-0.047-3.064,2.181-3.203,3.532
			c0.833-0.539,1.819-0.962,3.239-0.933c3.085,0.062,5.426,1.819,5.36,5.06l-0.001,0.044c-0.064,3.174-2.662,5.32-6.036,5.251
			C221.699,197.498,220.334,196.893,219.269,195.783z M226.354,192.374l0.001-0.044c0.026-1.31-0.975-2.285-2.662-2.319
			c-1.687-0.034-2.683,0.878-2.709,2.188l-0.001,0.044c-0.026,1.31,0.975,2.329,2.662,2.363
			C225.333,194.641,226.328,193.706,226.354,192.374z"/>
	</g>
</g>
<g>
	<g>
		<circle class="st0" cx="598.815" cy="341.791" r="21.593"/>
		<path class="st8" d="M598.827,364.603c-0.158,0-0.315-0.002-0.474-0.005c-12.576-0.255-22.6-10.693-22.346-23.268
			c0.252-12.419,10.437-22.35,22.801-22.35c0.156,0,0.312,0.002,0.468,0.005c12.575,0.254,22.599,10.692,22.345,23.268l-1.218-0.024
			l1.218,0.024c-0.123,6.092-2.611,11.771-7.006,15.992C610.334,362.355,604.743,364.603,598.827,364.603z M598.81,321.416
			c-11.046,0-20.141,8.87-20.366,19.963c-0.228,11.232,8.727,20.556,19.959,20.783c5.413,0.103,10.6-1.905,14.525-5.675
			s6.147-8.843,6.258-14.284c0.11-5.441-1.905-10.6-5.675-14.525s-8.843-6.148-14.283-6.258
			C599.088,321.417,598.948,321.416,598.81,321.416z"/>
	</g>
	<g>
		<path class="st1" d="M592.858,347.508l2.398-2.194c1.041,1.22,2.138,1.908,3.714,1.94c1.286,0.026,2.212-0.688,2.235-1.842
			l0.001-0.044c0.025-1.266-1.093-1.999-3.001-2.038l-1.421-0.028l-0.489-2.187l3.783-3.654l-6.104-0.124l0.059-2.93l10.499,0.212
			l-0.052,2.575l-4.006,3.672c2.103,0.398,4.145,1.549,4.086,4.435l-0.001,0.044c-0.06,2.93-2.233,5.041-5.696,4.971
			C596.067,350.261,594.159,349.111,592.858,347.508z"/>
	</g>
</g>
<g>
	<g>
		<circle class="st0" cx="224.614" cy="341.791" r="21.593"/>
		<path class="st8" d="M224.625,364.603c-0.158,0-0.315-0.002-0.474-0.005c-12.575-0.255-22.599-10.693-22.345-23.268
			c0.255-12.575,10.718-22.587,23.268-22.345c12.575,0.254,22.599,10.692,22.345,23.268l-1.218-0.024l1.218,0.024
			c-0.124,6.092-2.611,11.771-7.006,15.992C236.133,362.355,230.542,364.603,224.625,364.603z M224.608,321.416
			c-11.045,0-20.141,8.87-20.365,19.963c-0.228,11.232,8.726,20.556,19.958,20.783c5.456,0.11,10.6-1.905,14.525-5.675
			c3.925-3.77,6.148-8.843,6.258-14.284c0.11-5.441-1.905-10.6-5.675-14.525s-8.842-6.148-14.283-6.258
			C224.887,321.417,224.747,321.416,224.608,321.416z"/>
	</g>
	<g>
		<path class="st1" d="M217.55,347.863l2.115-2.422c1.155,1.089,2.296,1.734,3.672,1.762c1.598,0.032,2.613-0.724,2.641-2.1l0-0.044
			c0.027-1.332-1.089-2.132-2.709-2.165c-0.977-0.02-1.87,0.229-2.609,0.524l-1.949-1.35l0.6-7.649l9.544,0.193l-0.061,2.997
			l-6.615-0.134l-0.231,2.683c0.625-0.143,1.182-0.243,2.047-0.226c3.019,0.061,5.409,1.575,5.338,5.083l-0.001,0.044
			c-0.066,3.286-2.44,5.325-6.014,5.252C220.832,350.262,219.03,349.336,217.55,347.863z"/>
	</g>
</g>
<g>
	<g>
		<circle class="st0" cx="411.714" cy="479.075" r="21.593"/>
		<path class="st8" d="M411.727,501.886c-0.158,0-0.315-0.002-0.474-0.005c-6.092-0.123-11.771-2.611-15.992-7.006
			c-4.22-4.396-6.477-10.17-6.354-16.262c0.254-12.576,10.736-22.605,23.268-22.345c6.092,0.123,11.771,2.611,15.991,7.006
			c4.221,4.396,6.477,10.17,6.354,16.262s-2.611,11.771-7.006,15.991C423.233,499.638,417.643,501.886,411.727,501.886z
			 M411.709,458.7c-11.046,0-20.141,8.869-20.366,19.962c-0.11,5.441,1.905,10.6,5.675,14.525c3.77,3.926,8.843,6.147,14.284,6.258
			c11.266,0.235,20.556-8.726,20.783-19.958s-8.726-20.556-19.958-20.783C411.987,458.701,411.848,458.7,411.709,458.7z"/>
	</g>
	<g>
		<path class="st1" d="M411.902,482.896l-7.591-0.153l-0.506-2.431l8.724-9.705l2.886,0.059l-0.192,9.522l2.086,0.042l-0.057,2.774
			l-2.086-0.042l-0.068,3.352l-3.264-0.065L411.902,482.896z M411.959,480.121l0.098-4.839l-4.226,4.756L411.959,480.121z"/>
	</g>
</g>
<g>
	<g>
		<path class="st0" d="M540.244,178.642l-0.096-1.998c13.223-0.632,21.407-3.781,21.407-6.337c0-2.817-9.89-6.149-24.08-6.427
			l0.039-2c12.542,0.246,26.041,2.988,26.041,8.427C563.556,175.295,551.848,178.087,540.244,178.642z"/>
		<path class="st0" d="M534.803,178.75c-13.544-0.101-27.255-3.034-27.255-8.444c0-5.146,12.01-7.677,22.294-8.281l0.117,1.996
			c-12.607,0.74-20.411,3.839-20.411,6.285c0,2.557,8.999,6.323,25.271,6.444L534.803,178.75z"/>
		<path class="st0" d="M538.954,178.695l-0.068-1.999c0.424-0.014,0.845-0.032,1.262-0.052l0.098,1.998
			C539.818,178.663,539.388,178.68,538.954,178.695z"/>
		<path class="st0" d="M535.552,192.358c-13.575,0-28.004-2.96-28.004-8.446h2c0,2.692,9.893,6.446,26.004,6.446
			s26.004-3.754,26.004-6.446h2C563.556,189.398,549.127,192.358,535.552,192.358z"/>
		<path class="st0" d="M522.465,205.043c-4.485-0.676-14.917-2.763-14.917-7.526h2c0,1.712,4.136,4.179,13.216,5.548
			L522.465,205.043z"/>
		<path class="st0" d="M550.607,204.903l-0.377-1.964c7.355-1.414,11.325-3.849,11.325-5.422h2
			C563.556,201.129,556.867,203.701,550.607,204.903z"/>
		<path class="st0" d="M535.552,219.569c-13.575,0-28.004-2.96-28.004-8.446h2c0,2.692,9.893,6.446,26.004,6.446
			s26.004-3.754,26.004-6.446h2C563.556,216.608,549.127,219.569,535.552,219.569z"/>
		<rect x="507.571" y="170.445" class="st0" width="2" height="41.413"/>
		<rect x="561.51" y="170.445" class="st0" width="2" height="41.413"/>
		<g>
			<path class="st0" d="M530.467,212.417c-0.004,0-0.008,0-0.011,0l-2.669-0.03c-4.134-0.047-7.458-3.448-7.412-7.581
				c0.022-1.99,0.823-3.857,2.256-5.257c1.432-1.4,3.315-2.192,5.308-2.136l2.687,0.03c0.265,0.003,0.518,0.111,0.703,0.301
				c0.186,0.19,0.288,0.445,0.285,0.71l-0.146,12.974C531.461,211.977,531.014,212.417,530.467,212.417z M527.853,199.413
				c-1.434,0-2.789,0.555-3.824,1.566c-1.05,1.026-1.637,2.394-1.653,3.85c-0.034,3.031,2.403,5.524,5.435,5.559l1.669,0.019
				l0.124-10.974l-1.688-0.019C527.895,199.413,527.873,199.413,527.853,199.413z"/>
			<g>
				<path class="st0" d="M540.601,212.458c-0.55,0-0.997-0.444-1-0.994l-0.076-12.974c-0.003-0.552,0.441-1.002,0.994-1.006
					l2.669-0.016c0.015,0,0.029,0,0.045,0c4.112,0,7.472,3.334,7.496,7.453c0.023,4.124-3.312,7.498-7.435,7.522l-2.688,0.016
					C540.604,212.458,540.603,212.458,540.601,212.458z M541.53,199.479l0.064,10.974l1.688-0.01c3.021-0.018,5.464-2.49,5.446-5.51
					c-0.019-3.02-2.481-5.464-5.496-5.464c-0.012,0-0.022,0-0.033,0L541.53,199.479z"/>
				<path class="st0" d="M540.59,209.111l-6.785,0.032c-0.495,0.002-0.902-0.401-0.905-0.896l-0.003-0.554
					c-0.002-0.495,0.401-0.902,0.896-0.905l6.785-0.032c0.495-0.002,0.902,0.401,0.905,0.896l0.003,0.554
					C541.488,208.701,541.085,209.109,540.59,209.111z"/>
				<path class="st0" d="M540.721,203.148l-6.785,0.032c-0.495,0.002-0.902-0.401-0.905-0.896l-0.003-0.554
					c-0.002-0.495,0.401-0.902,0.896-0.905l6.785-0.032c0.495-0.002,0.902,0.401,0.905,0.896l0.003,0.554
					C541.62,202.739,541.217,203.146,540.721,203.148z"/>
			</g>
		</g>
	</g>
	<path class="st0" d="M534.461,189.325c-0.081,0-0.163-0.01-0.244-0.03c-0.473-0.119-0.791-0.562-0.753-1.048l1.23-15.622
		l-7.198,0.138c-0.356-0.001-0.617-0.138-0.811-0.388c-0.193-0.25-0.257-0.577-0.172-0.881l4.464-15.977
		c0.12-0.432,0.515-0.731,0.963-0.731h8.086c0.324,0,0.629,0.157,0.816,0.422s0.234,0.604,0.127,0.91l-3.491,9.925l6.365-0.049
		c0.332,0.002,0.656,0.167,0.843,0.45s0.217,0.642,0.08,0.953l-9.391,21.331C535.214,189.098,534.85,189.325,534.461,189.325z
		 M535.778,170.604c0.275,0,0.539,0.113,0.728,0.314c0.193,0.205,0.292,0.483,0.27,0.764l-0.854,10.845l6.393-14.521l-6.243,0.048
		c-0.34,0.029-0.632-0.153-0.821-0.419c-0.189-0.265-0.238-0.605-0.13-0.913l3.495-9.936h-5.915l-3.897,13.951l6.957-0.133
		C535.766,170.604,535.772,170.604,535.778,170.604z"/>
</g>
<g>
	<g>
		<path class="st0" d="M550.938,324.074h-27.967c-0.553,0-1-0.448-1-1s0.447-1,1-1h27.967c0.553,0,1,0.448,1,1
			S551.49,324.074,550.938,324.074z"/>
		<g>
			<path class="st0" d="M526.785,338.586h-13.307c-1.729,0-3.135-1.406-3.135-3.135v-10.316c0-1.729,1.406-3.135,3.135-3.135h5.195
				v2h-5.195c-0.626,0-1.135,0.509-1.135,1.135v10.316c0,0.626,0.509,1.135,1.135,1.135h13.307V338.586z"/>
			<path class="st0" d="M560.455,338.586h-13.062v-2h13.062c0.626,0,1.136-0.509,1.136-1.135v-10.316
				c0-0.626-0.51-1.135-1.136-1.135h-5.563v-2h5.563c1.729,0,3.136,1.406,3.136,3.135v10.316
				C563.591,337.18,562.185,338.586,560.455,338.586z"/>
		</g>
	</g>
	<g>
		<path class="st0" d="M533.284,354.23h-20.018c-1.739,0-3.154-1.415-3.154-3.154v-10.41c0-1.739,1.415-3.154,3.154-3.154h14.242
			c0.553,0,1,0.448,1,1s-0.447,1-1,1h-14.242c-0.637,0-1.154,0.518-1.154,1.154v10.41c0,0.637,0.518,1.154,1.154,1.154h20.018
			c0.553,0,1,0.448,1,1S533.837,354.23,533.284,354.23z"/>
		<g>
			<path class="st0" d="M560.668,368.903h-47.401c-1.739,0-3.154-1.415-3.154-3.155v-10.409c0-1.739,1.415-3.154,3.154-3.154h20.602
				c0.553,0,1,0.448,1,1s-0.447,1-1,1h-20.602c-0.637,0-1.154,0.518-1.154,1.154v10.409c0,0.637,0.518,1.155,1.154,1.155h47.401
				c0.637,0,1.154-0.518,1.154-1.155v-10.409c0-0.637-0.518-1.154-1.154-1.154h-20.833c-0.553,0-1-0.448-1-1s0.447-1,1-1h20.833
				c1.739,0,3.154,1.415,3.154,3.154v10.409C563.822,367.488,562.407,368.903,560.668,368.903z"/>
			<path class="st0" d="M560.668,354.23h-20.716c-0.553,0-1-0.448-1-1s0.447-1,1-1h20.716c0.637,0,1.154-0.518,1.154-1.154v-10.41
				c0-0.637-0.518-1.154-1.154-1.154h-13.696c-0.553,0-1-0.448-1-1s0.447-1,1-1h13.696c1.739,0,3.154,1.415,3.154,3.154v10.41
				C563.822,352.815,562.407,354.23,560.668,354.23z"/>
		</g>
	</g>
	<path class="st0" d="M519.188,330.065c0.236,0,0.428,0.192,0.428,0.428c0,0.236-0.192,0.428-0.428,0.428s-0.428-0.192-0.428-0.428
		C518.76,330.257,518.952,330.065,519.188,330.065 M519.188,328.065c-1.341,0-2.428,1.087-2.428,2.428s1.087,2.428,2.428,2.428
		s2.428-1.087,2.428-2.428S520.529,328.065,519.188,328.065L519.188,328.065z"/>
	<path class="st0" d="M519.188,345.24c0.236,0,0.428,0.192,0.428,0.428s-0.192,0.428-0.428,0.428s-0.428-0.192-0.428-0.428
		S518.952,345.24,519.188,345.24 M519.188,343.24c-1.341,0-2.428,1.087-2.428,2.428s1.087,2.428,2.428,2.428
		s2.428-1.087,2.428-2.428S520.529,343.24,519.188,343.24L519.188,343.24z"/>
	<g>
		<path class="st0" d="M534.804,345.404h0.005H534.804 M534.799,346.342l4.081,0.022l-0.077,14.529l-4.081-0.022L534.799,346.342
			 M533.866,344.337c-0.582,0-1.059,0.474-1.062,1.056l-0.087,16.405c-0.003,0.584,0.472,1.064,1.056,1.068l5.957,0.032
			c0.002,0,0.004,0,0.006,0c0.581,0,1.059-0.474,1.062-1.056l0.087-16.405c0.003-0.584-0.472-1.064-1.056-1.068l-5.957-0.032
			C533.869,344.337,533.867,344.337,533.866,344.337L533.866,344.337z"/>
		<polygon class="st0" points="535.359,340.447 535.331,345.703 538.354,345.719 538.381,340.463 535.359,340.447 		"/>
		<path class="st0" d="M536.965,304.447l0.096,0c9.778,0.052,17.69,8.049,17.639,17.826c-0.051,9.726-8.005,17.639-17.73,17.639
			l-0.096,0c-4.737-0.025-9.18-1.893-12.511-5.26s-5.152-7.83-5.127-12.566C519.286,312.36,527.24,304.447,536.965,304.447
			 M536.961,337.709c4.548,0,8.851-1.98,11.805-5.433c2.697-3.152,4.005-7.165,3.683-11.3c-0.322-4.135-2.234-7.898-5.386-10.595
			c-2.811-2.406-6.394-3.731-10.09-3.73c-4.548,0-8.851,1.981-11.805,5.433c-2.697,3.152-4.005,7.165-3.683,11.3
			c0.322,4.135,2.234,7.898,5.386,10.595C529.682,336.384,533.265,337.709,536.961,337.709 M536.965,302.447
			c-10.85,0-19.673,8.766-19.73,19.628c-0.058,10.898,8.73,19.779,19.628,19.837c0.035,0,0.071,0,0.107,0
			c10.85,0,19.673-8.766,19.73-19.628c0.058-10.898-8.73-19.779-19.628-19.837C537.036,302.447,537,302.447,536.965,302.447
			L536.965,302.447z M536.961,335.709c-3.112,0-6.24-1.068-8.79-3.25c-5.677-4.858-6.341-13.398-1.483-19.076
			c2.676-3.127,6.469-4.733,10.286-4.733c3.112,0,6.24,1.068,8.79,3.25c5.677,4.858,6.341,13.398,1.483,19.076
			C544.571,334.103,540.777,335.709,536.961,335.709L536.961,335.709z"/>
	</g>
</g>
<g>
	<path class="st0" d="M293.774,218.457c-5.169,0-9.321-4.253-9.454-9.682l0.002-9.074c0-0.552,0.448-1,1-1c0,0,0,0,0,0
		c0.552,0,1,0.448,1,1l-0.002,9.049c0.105,4.31,3.38,7.706,7.454,7.706c3.059,0,5.774-1.952,6.919-4.973
		c0.194-0.509,0.761-0.769,1.271-0.587c0.767,0.273,1.564,0.412,2.371,0.412c4.113,0,7.46-3.562,7.46-7.941
		c0-1.803-0.555-3.503-1.606-4.918c-0.174-0.235-0.237-0.535-0.172-0.82s0.252-0.527,0.512-0.663c2.58-1.346,4.183-4.08,4.183-7.134
		c0-3.038-1.665-5.851-4.24-7.165c-0.264-0.135-0.455-0.379-0.521-0.668s0-0.592,0.18-0.828c1.088-1.429,1.664-3.157,1.664-4.997
		c0-4.378-3.347-7.941-7.46-7.941c-0.819,0-1.628,0.143-2.406,0.425c-0.508,0.187-1.072-0.069-1.271-0.574
		c-1.166-2.962-3.867-4.876-6.883-4.876c-3.953,0-7.224,3.288-7.447,7.486l-0.002,12.651c0,0.552-0.448,1-1,1c0,0,0,0,0,0
		c-0.552,0-1-0.448-1-1l0.003-12.704c0.281-5.312,4.429-9.432,9.445-9.432c3.544,0,6.738,2.051,8.366,5.297
		c0.718-0.181,1.454-0.271,2.195-0.271c5.216,0,9.46,4.459,9.46,9.941c0,1.869-0.508,3.707-1.448,5.282
		c2.682,1.812,4.365,4.985,4.365,8.376c0,3.417-1.627,6.519-4.311,8.341c0.915,1.559,1.394,3.334,1.394,5.194
		c0,5.481-4.244,9.941-9.46,9.941c-0.723,0-1.44-0.086-2.141-0.258C300.585,216.363,297.37,218.457,293.774,218.457z"/>
	<path class="st0" d="M307.059,186.104c-0.346,0-0.682-0.179-0.867-0.5c-0.276-0.479-0.112-1.09,0.367-1.366
		c1.668-0.961,3.604-3.106,3.623-3.128c0.368-0.411,1-0.446,1.412-0.076c0.411,0.369,0.445,1.001,0.077,1.412
		c-0.088,0.097-2.167,2.402-4.113,3.524C307.4,186.061,307.229,186.104,307.059,186.104z"/>
	<path class="st0" d="M301.63,212.827c-0.137,0-0.275-0.028-0.408-0.087c-0.117-0.052-2.893-1.304-4.569-2.837
		c-0.408-0.373-0.436-1.005-0.063-1.413c0.372-0.408,1.004-0.437,1.413-0.063c1.437,1.314,4.011,2.476,4.037,2.488
		c0.504,0.226,0.729,0.817,0.504,1.321C302.376,212.606,302.012,212.827,301.63,212.827z"/>
	<path class="st0" d="M290.125,206.077h-4.371c-0.552,0-1-0.448-1-1s0.448-1,1-1h4.371c1.083,0,2.232-0.443,3.152-1.215
		c0.492-0.413,0.843-0.878,1.073-1.422c0.215-0.508,0.8-0.747,1.311-0.531c0.509,0.215,0.747,0.802,0.531,1.311
		c-0.351,0.831-0.899,1.562-1.629,2.175C293.269,205.479,291.692,206.077,290.125,206.077z"/>
	<path class="st0" d="M311.468,199.03h-4.409c-1.192,0-2.364-0.432-3.299-1.216c-0.815-0.684-1.253-1.677-1.339-3.036
		c-0.035-0.551,0.384-1.026,0.936-1.061c0.545-0.029,1.026,0.384,1.061,0.936c0.065,1.031,0.37,1.412,0.628,1.628
		c0.567,0.476,1.301,0.748,2.014,0.748h4.409c0.552,0,1,0.448,1,1S312.02,199.03,311.468,199.03z"/>
	<path class="st0" d="M297.757,180.389c-0.451,0-0.86-0.307-0.971-0.764c-0.13-0.537,0.199-1.077,0.736-1.208
		c1.091-0.265,1.837-1.009,2.271-1.586c0.599-0.798,0.89-1.913,0.89-3.41v-5.497c0-0.552,0.448-1,1-1s1,0.448,1,1v5.497
		c0,1.945-0.422,3.454-1.291,4.61c-0.63,0.839-1.731,1.924-3.398,2.329C297.915,180.38,297.835,180.389,297.757,180.389z"/>
	<path class="st0" d="M294.947,178.818c1.285,0,2.326,1.041,2.326,2.326s-1.041,2.326-2.326,2.326s-2.326-1.041-2.326-2.326
		S293.662,178.818,294.947,178.818 M294.947,176.818c-2.385,0-4.326,1.941-4.326,4.326s1.941,4.326,4.326,4.326
		s4.326-1.941,4.326-4.326S297.332,176.818,294.947,176.818L294.947,176.818z"/>
	<path class="st0" d="M294.947,196.032c1.285,0,2.326,1.041,2.326,2.326s-1.041,2.326-2.326,2.326s-2.326-1.041-2.326-2.326
		S293.662,196.032,294.947,196.032 M294.947,194.032c-2.385,0-4.326,1.941-4.326,4.326s1.941,4.326,4.326,4.326
		s4.326-1.941,4.326-4.326S297.332,194.032,294.947,194.032L294.947,194.032z"/>
	<path class="st0" d="M303.475,188.74c1.285,0,2.326,1.041,2.326,2.326s-1.041,2.326-2.326,2.326s-2.326-1.041-2.326-2.326
		S302.19,188.74,303.475,188.74 M303.475,186.74c-2.385,0-4.326,1.941-4.326,4.326s1.941,4.326,4.326,4.326
		c2.385,0,4.326-1.941,4.326-4.326S305.86,186.74,303.475,186.74L303.475,186.74z"/>
	<path class="st0" d="M276.889,218.409c-3.544,0-6.738-2.051-8.366-5.296c-0.718,0.18-1.453,0.271-2.195,0.271
		c-5.216,0-9.46-4.459-9.46-9.941c0-1.868,0.508-3.707,1.448-5.282c-2.682-1.812-4.365-4.985-4.365-8.376
		c0-3.417,1.627-6.519,4.311-8.341c-0.915-1.559-1.394-3.334-1.394-5.194c0-5.481,4.244-9.941,9.46-9.941
		c0.723,0,1.44,0.086,2.141,0.258c1.609-3.313,4.824-5.407,8.419-5.407c5.169,0,9.321,4.253,9.454,9.683l-0.002,9.074
		c0,0.552-0.448,1-1,1c0,0,0,0,0,0c-0.552,0-1-0.448-1-1l0.002-9.049c-0.105-4.311-3.38-7.707-7.454-7.707
		c-3.058,0-5.773,1.952-6.919,4.973c-0.193,0.51-0.759,0.771-1.271,0.587c-0.766-0.273-1.563-0.412-2.371-0.412
		c-4.113,0-7.46,3.562-7.46,7.941c0,1.802,0.555,3.503,1.606,4.918c0.175,0.235,0.237,0.535,0.172,0.82s-0.252,0.527-0.512,0.663
		c-2.58,1.346-4.183,4.08-4.183,7.134c0,3.038,1.665,5.851,4.24,7.165c0.264,0.135,0.455,0.379,0.521,0.668s0,0.592-0.18,0.828
		c-1.088,1.429-1.664,3.157-1.664,4.996c0,4.378,3.347,7.941,7.46,7.941c0.82,0,1.629-0.143,2.406-0.424
		c0.51-0.186,1.073,0.07,1.271,0.574c1.166,2.962,3.867,4.876,6.883,4.876c3.953,0,7.224-3.288,7.447-7.485l0.002-12.651
		c0-0.552,0.448-1,1-1c0,0,0,0,0,0c0.552,0,1,0.448,1,1l-0.003,12.704C286.054,214.289,281.906,218.409,276.889,218.409z"/>
	<path class="st0" d="M259.737,198.84c-0.238,0-0.476-0.084-0.667-0.255c-0.411-0.369-0.445-1.001-0.077-1.413
		c0.088-0.097,2.167-2.402,4.113-3.525c0.477-0.276,1.09-0.113,1.366,0.367c0.276,0.479,0.112,1.09-0.367,1.366
		c-1.673,0.965-3.604,3.106-3.623,3.128C260.284,198.728,260.011,198.84,259.737,198.84z"/>
	<path class="st0" d="M273.335,171.453c-0.241,0-0.482-0.086-0.674-0.262c-1.437-1.313-4.012-2.476-4.038-2.488
		c-0.503-0.226-0.729-0.817-0.503-1.321c0.227-0.505,0.819-0.729,1.321-0.504c0.117,0.052,2.893,1.304,4.569,2.837
		c0.408,0.373,0.436,1.005,0.063,1.413C273.876,171.344,273.606,171.453,273.335,171.453z"/>
	<path class="st0" d="M275.376,178.826c-0.127,0-0.256-0.024-0.381-0.076c-0.51-0.211-0.753-0.796-0.542-1.306
		c0.352-0.851,0.907-1.598,1.65-2.221c1.292-1.084,2.868-1.682,4.437-1.682h4.371c0.552,0,1,0.448,1,1s-0.448,1-1,1h-4.371
		c-1.083,0-2.231,0.443-3.152,1.215c-0.5,0.419-0.856,0.895-1.086,1.452C276.142,178.593,275.769,178.825,275.376,178.826z"/>
	<path class="st0" d="M267.259,186.395c-0.552,0-1-0.448-1-1c0-1.349-0.342-1.809-0.641-2.059c-0.566-0.476-1.3-0.749-2.014-0.749
		h-4.409c-0.552,0-1-0.448-1-1s0.448-1,1-1h4.409c1.193,0,2.365,0.432,3.299,1.216c0.924,0.775,1.355,1.917,1.355,3.591
		C268.259,185.947,267.811,186.395,267.259,186.395z"/>
	<path class="st0" d="M268.98,212.692c-0.552,0-1-0.448-1-1v-5.497c0-1.946,0.422-3.454,1.291-4.611
		c0.626-0.834,1.721-1.914,3.377-2.323c0.533-0.134,1.078,0.194,1.21,0.731c0.133,0.536-0.195,1.078-0.731,1.21
		c-1.084,0.268-1.826,1.009-2.257,1.583c-0.599,0.797-0.89,1.913-0.89,3.41v5.497C269.98,212.245,269.533,212.692,268.98,212.692z"
		/>
	<path class="st0" d="M275.717,196.032c1.285,0,2.326,1.041,2.326,2.326s-1.041,2.326-2.326,2.326s-2.326-1.041-2.326-2.326
		S274.432,196.032,275.717,196.032 M275.717,194.032c-2.385,0-4.326,1.941-4.326,4.326s1.941,4.326,4.326,4.326
		c2.385,0,4.326-1.941,4.326-4.326S278.102,194.032,275.717,194.032L275.717,194.032z"/>
	<path class="st0" d="M275.717,178.818c1.285,0,2.326,1.041,2.326,2.326s-1.041,2.326-2.326,2.326s-2.326-1.041-2.326-2.326
		S274.432,178.818,275.717,178.818 M275.717,176.818c-2.385,0-4.326,1.941-4.326,4.326s1.941,4.326,4.326,4.326
		c2.385,0,4.326-1.941,4.326-4.326S278.102,176.818,275.717,176.818L275.717,176.818z"/>
	<path class="st0" d="M267.188,186.728c1.285,0,2.326,1.041,2.326,2.326s-1.041,2.326-2.326,2.326s-2.326-1.041-2.326-2.326
		S265.904,186.728,267.188,186.728 M267.188,184.728c-2.385,0-4.326,1.941-4.326,4.326s1.941,4.326,4.326,4.326
		s4.326-1.941,4.326-4.326S269.573,184.728,267.188,184.728L267.188,184.728z"/>
</g>
</svg>
